v 0 0 0
v 0.125 0 0
v 0 0 0.125
v 0.125 0 0.125
v 0 1 0
v 0 1 0.125
v 0.125 1 0
v 0.125 1 0.125
v 0.125 0 0.25
v 0 0 0.25
v 0.125 1 0.25
v 0 1 0.25
v 0 0 0.375
v 0.125 0 0.375
v 0 1 0.375
v 0.125 1 0.375
v 0.125 0 0.5
v 0 0 0.5
v 0.125 1 0.5
v 0 1 0.5
v 0 0 0.625
v 0.125 0 0.625
v 0 1 0.625
v 0.125 1 0.625
v 0.125 0 0.75
v 0 0 0.75
v 0.125 1 0.75
v 0 1 0.75
v 0 0 0.875
v 0.125 0 0.875
v 0 1 0.875
v 0.125 1 0.875
v 0.125 0 1
v 0 0 1
v 0.125 1 1
v 0 1 1
v 0.25 0 0
v 0.25 0 0.125
v 0.25 1 0.125
v 0.25 1 0
v 0.25 0 0.25
v 0.25 1 0.25
v 0.25 0 0.375
v 0.25 1 0.375
v 0.25 0 0.5
v 0.25 1 0.5
v 0.25 0 0.625
v 0.25 1 0.625
v 0.25 0 0.75
v 0.25 1 0.75
v 0.25 0 0.875
v 0.25 1 0.875
v 0.25 0 1
v 0.25 1 1
v 0.375 0 0
v 0.375 0 0.125
v 0.375 1 0
v 0.375 1 0.125
v 0.375 0 0.25
v 0.375 1 0.25
v 0.375 0 0.375
v 0.375 1 0.375
v 0.375 0 0.5
v 0.375 1 0.5
v 0.375 0 0.625
v 0.375 1 0.625
v 0.375 0 0.75
v 0.375 1 0.75
v 0.375 0 0.875
v 0.375 1 0.875
v 0.375 0 1
v 0.375 1 1
v 0.5 0 0
v 0.5 0 0.125
v 0.5 1 0.125
v 0.5 1 0
v 0.5 0 0.25
v 0.5 1 0.25
v 0.5 0 0.375
v 0.5 1 0.375
v 0.5 0 0.5
v 0.5 1 0.5
v 0.5 0 0.625
v 0.5 1 0.625
v 0.5 0 0.75
v 0.5 1 0.75
v 0.5 0 0.875
v 0.5 1 0.875
v 0.5 0 1
v 0.5 1 1
v 0.625 0 0
v 0.625 0 0.125
v 0.625 1 0
v 0.625 1 0.125
v 0.625 0 0.25
v 0.625 1 0.25
v 0.625 0 0.375
v 0.625 1 0.375
v 0.625 0 0.5
v 0.625 1 0.5
v 0.625 0 0.625
v 0.625 1 0.625
v 0.625 0 0.75
v 0.625 1 0.75
v 0.625 0 0.875
v 0.625 1 0.875
v 0.625 0 1
v 0.625 1 1
v 0.75 0 0
v 0.75 0 0.125
v 0.75 1 0.125
v 0.75 1 0
v 0.75 0 0.25
v 0.75 1 0.25
v 0.75 0 0.375
v 0.75 1 0.375
v 0.75 0 0.5
v 0.75 1 0.5
v 0.75 0 0.625
v 0.75 1 0.625
v 0.75 0 0.75
v 0.75 1 0.75
v 0.75 0 0.875
v 0.75 1 0.875
v 0.75 0 1
v 0.75 1 1
v 0.875 0 0
v 0.875 0 0.125
v 0.875 1 0
v 0.875 1 0.125
v 0.875 0 0.25
v 0.875 1 0.25
v 0.875 0 0.375
v 0.875 1 0.375
v 0.875 0 0.5
v 0.875 1 0.5
v 0.875 0 0.625
v 0.875 1 0.625
v 0.875 0 0.75
v 0.875 1 0.75
v 0.875 0 0.875
v 0.875 1 0.875
v 0.875 0 1
v 0.875 1 1
v 1 0 0
v 1 0 0.125
v 1 1 0.125
v 1 1 0
v 1 0 0.25
v 1 1 0.25
v 1 0 0.375
v 1 1 0.375
v 1 0 0.5
v 1 1 0.5
v 1 0 0.625
v 1 1 0.625
v 1 0 0.75
v 1 1 0.75
v 1 0 0.875
v 1 1 0.875
v 1 0 1
v 1 1 1
v 1 0.125 0
v 1 0.125 0.125
v 0 0.125 0
v 0 0.125 0.125
v 1 0.25 0
v 1 0.25 0.125
v 0 0.25 0.125
v 0 0.25 0
v 1 0.375 0
v 1 0.375 0.125
v 0 0.375 0
v 0 0.375 0.125
v 1 0.5 0
v 1 0.5 0.125
v 0 0.5 0.125
v 0 0.5 0
v 1 0.625 0
v 1 0.625 0.125
v 0 0.625 0
v 0 0.625 0.125
v 1 0.75 0
v 1 0.75 0.125
v 0 0.75 0.125
v 0 0.75 0
v 1 0.875 0
v 1 0.875 0.125
v 0 0.875 0
v 0 0.875 0.125
v 1 0.125 0.25
v 0 0.125 0.25
v 1 0.25 0.25
v 0 0.25 0.25
v 1 0.375 0.25
v 0 0.375 0.25
v 1 0.5 0.25
v 0 0.5 0.25
v 1 0.625 0.25
v 0 0.625 0.25
v 1 0.75 0.25
v 0 0.75 0.25
v 1 0.875 0.25
v 0 0.875 0.25
v 1 0.125 0.375
v 0 0.125 0.375
v 1 0.25 0.375
v 0 0.25 0.375
v 1 0.375 0.375
v 0 0.375 0.375
v 1 0.5 0.375
v 0 0.5 0.375
v 1 0.625 0.375
v 0 0.625 0.375
v 1 0.75 0.375
v 0 0.75 0.375
v 1 0.875 0.375
v 0 0.875 0.375
v 1 0.125 0.5
v 0 0.125 0.5
v 1 0.25 0.5
v 0 0.25 0.5
v 1 0.375 0.5
v 0 0.375 0.5
v 1 0.5 0.5
v 0 0.5 0.5
v 1 0.625 0.5
v 0 0.625 0.5
v 1 0.75 0.5
v 0 0.75 0.5
v 1 0.875 0.5
v 0 0.875 0.5
v 1 0.125 0.625
v 0 0.125 0.625
v 1 0.25 0.625
v 0 0.25 0.625
v 1 0.375 0.625
v 0 0.375 0.625
v 1 0.5 0.625
v 0 0.5 0.625
v 1 0.625 0.625
v 0 0.625 0.625
v 1 0.75 0.625
v 0 0.75 0.625
v 1 0.875 0.625
v 0 0.875 0.625
v 1 0.125 0.75
v 0 0.125 0.75
v 1 0.25 0.75
v 0 0.25 0.75
v 1 0.375 0.75
v 0 0.375 0.75
v 1 0.5 0.75
v 0 0.5 0.75
v 1 0.625 0.75
v 0 0.625 0.75
v 1 0.75 0.75
v 0 0.75 0.75
v 1 0.875 0.75
v 0 0.875 0.75
v 1 0.125 0.875
v 0 0.125 0.875
v 1 0.25 0.875
v 0 0.25 0.875
v 1 0.375 0.875
v 0 0.375 0.875
v 1 0.5 0.875
v 0 0.5 0.875
v 1 0.625 0.875
v 0 0.625 0.875
v 1 0.75 0.875
v 0 0.75 0.875
v 1 0.875 0.875
v 0 0.875 0.875
v 1 0.125 1
v 0 0.125 1
v 1 0.25 1
v 0 0.25 1
v 1 0.375 1
v 0 0.375 1
v 1 0.5 1
v 0 0.5 1
v 1 0.625 1
v 0 0.625 1
v 1 0.75 1
v 0 0.75 1
v 1 0.875 1
v 0 0.875 1
v 0.125 0.125 1
v 0.125 0.125 0
v 0.25 0.125 1
v 0.25 0.125 0
v 0.375 0.125 1
v 0.375 0.125 0
v 0.5 0.125 1
v 0.5 0.125 0
v 0.625 0.125 1
v 0.625 0.125 0
v 0.75 0.125 1
v 0.75 0.125 0
v 0.875 0.125 1
v 0.875 0.125 0
v 0.125 0.25 1
v 0.125 0.25 0
v 0.25 0.25 1
v 0.25 0.25 0
v 0.375 0.25 1
v 0.375 0.25 0
v 0.5 0.25 1
v 0.5 0.25 0
v 0.625 0.25 1
v 0.625 0.25 0
v 0.75 0.25 1
v 0.75 0.25 0
v 0.875 0.25 1
v 0.875 0.25 0
v 0.125 0.375 1
v 0.125 0.375 0
v 0.25 0.375 1
v 0.25 0.375 0
v 0.375 0.375 1
v 0.375 0.375 0
v 0.5 0.375 1
v 0.5 0.375 0
v 0.625 0.375 1
v 0.625 0.375 0
v 0.75 0.375 1
v 0.75 0.375 0
v 0.875 0.375 1
v 0.875 0.375 0
v 0.125 0.5 1
v 0.125 0.5 0
v 0.25 0.5 1
v 0.25 0.5 0
v 0.375 0.5 1
v 0.375 0.5 0
v 0.5 0.5 1
v 0.5 0.5 0
v 0.625 0.5 1
v 0.625 0.5 0
v 0.75 0.5 1
v 0.75 0.5 0
v 0.875 0.5 1
v 0.875 0.5 0
v 0.125 0.625 1
v 0.125 0.625 0
v 0.25 0.625 1
v 0.25 0.625 0
v 0.375 0.625 1
v 0.375 0.625 0
v 0.5 0.625 1
v 0.5 0.625 0
v 0.625 0.625 1
v 0.625 0.625 0
v 0.75 0.625 1
v 0.75 0.625 0
v 0.875 0.625 1
v 0.875 0.625 0
v 0.125 0.75 1
v 0.125 0.75 0
v 0.25 0.75 1
v 0.25 0.75 0
v 0.375 0.75 1
v 0.375 0.75 0
v 0.5 0.75 1
v 0.5 0.75 0
v 0.625 0.75 1
v 0.625 0.75 0
v 0.75 0.75 1
v 0.75 0.75 0
v 0.875 0.75 1
v 0.875 0.75 0
v 0.125 0.875 1
v 0.125 0.875 0
v 0.25 0.875 1
v 0.25 0.875 0
v 0.375 0.875 1
v 0.375 0.875 0
v 0.5 0.875 1
v 0.5 0.875 0
v 0.625 0.875 1
v 0.625 0.875 0
v 0.75 0.875 1
v 0.75 0.875 0
v 0.875 0.875 1
v 0.875 0.875 0
v 0.320749 0.0868149 0.175087
v 0.137324 0.446901 0.0567164
v 0.920203 0.552793 0.834298
v 0.5 0.5 0.5
v 0.3125 0.351212 0.351212
v 0.708333 0.504161 0.708333
v 0.3125 0.6875 0.6875
v 0.3125 0.3125 0.6875
v 0.3125 0.6875 0.3125
v 0.6875 0.6875 0.3125
v 0.6875 0.3125 0.3125
v 0.633081 0.271982 0.579848
v 0.576416 0.730306 0.627359
v 0.181367 0.217368 0.217368
v 0.509167 0.307512 0.1875
v 0.245328 0.50105 0.303155
v 0.753383 0.5 0.463111
v 0.463111 0.5 0.753383
v 0.77957 0.715898 0.8125
v 0.240036 0.5 0.547856
v 0.5 0.546706 0.240726
v 0.769554 0.286603 0.769554
v 0.739665 0.472112 0.943368
v 0.510833 0.229375 0.770625
v 0.770793 0.770793 0.510497
v 0.223958 0.5 0.776042
v 0.5 0.776042 0.223958
v 0.223958 0.776042 0.5
v 0.776042 0.5 0.223958
v 0.462966 0.787208 0.443771
v 0.220679 0.220679 0.506558
v 0.442952 0.21577 0.474161
v 0.46185 0.795117 0.795117
v 0.795834 0.204166 0.460416
v 0.191964 0.808036 0.808036
v 0.191964 0.191964 0.808036
v 0.808036 0.808036 0.191964
v 0.808036 0.191964 0.191964
v 0.191964 0.808036 0.191964
v 0.596598 0.638811 0.802685
v 0.3125 0.201165 0.201165
v 0.162422 0.391194 0.192464
v 0.806876 0.362322 0.592364
v 0.843369 0.441586 0.798711
v 0.36787 0.636859 0.512261
v 0.602786 0.388374 0.813239
v 0.814129 0.644481 0.642396
v 0.512281 0.360269 0.370762
v 0.345589 0.408498 0.179008
v 0.551178 0.181138 0.322417
v 0.178551 0.622578 0.178551
v 0.479615 0.365544 0.626409
v 0.626201 0.633235 0.478186
v 0.828864 0.828864 0.675483
v 0.417282 0.82145 0.61828
v 0.825396 0.174604 0.63749
v 0.175209 0.617484 0.424549
v 0.637138 0.826335 0.826335
v 0.633713 0.825795 0.410987
v 0.636858 0.480911 0.331421
v 0.407289 0.172078 0.640647
v 0.313185 0.162698 0.370952
v 0.660804 0.166008 0.833992
v 0.404603 0.354459 0.829438
v 0.829442 0.645467 0.404509
v 0.340235 0.360172 0.522615
v 0.164067 0.405503 0.423398
v 0.361565 0.167343 0.832657
v 0.832792 0.832792 0.361374
v 0.349919 0.596749 0.169384
v 0.396848 0.639427 0.829766
v 0.829767 0.36059 0.396826
v 0.62621 0.434426 0.163812
v 0.169033 0.647696 0.600891
v 0.837911 0.586422 0.775158
v 0.168944 0.353464 0.602495
v 0.606422 0.656535 0.166159
v 0.639571 0.439154 0.57002
v 0.394355 0.542078 0.373736
v 0.644665 0.837062 0.162938
v 0.162938 0.644665 0.837062
v 0.162938 0.355335 0.837062
v 0.837062 0.644665 0.162938
v 0.837062 0.355335 0.162938
v 0.355335 0.837062 0.162938
v 0.162938 0.837062 0.644665
v 0.162938 0.837062 0.355335
v 0.635688 0.169284 0.169284
v 0.569132 0.566878 0.646534
v 0.160218 0.160218 0.648514
v 0.850457 0.49309 0.656049
v 0.327351 0.842245 0.367675
v 0.527772 0.667582 0.349951
v 0.842107 0.157893 0.842107
v 0.670807 0.146658 0.674153
v 0.670144 0.85304 0.671448
v 0.386385 0.512963 0.612836
v 0.153025 0.173065 0.369014
v 0.205672 0.500932 0.127269
v 0.558252 0.861313 0.543522
v 0.852859 0.852859 0.827842
v 0.711323 0.550464 0.855212
v 0.300229 0.859528 0.711107
v 0.854299 0.145701 0.330951
v 0.692217 0.346695 0.460926
v 0.121448 0.31433 0.313435
v 0.132745 0.697698 0.302559
v 0.331501 0.840562 0.858566
v 0.460815 0.660352 0.694652
v 0.868316 0.318798 0.868316
v 0.697238 0.303519 0.13237
v 0.416793 0.251073 0.301304
v 0.70822 0.164107 0.300809
v 0.675315 0.363514 0.689326
v 0.643253 0.202232 0.443453
v 0.553206 0.137761 0.556118
v 0.708391 0.865903 0.291584
v 0.554098 0.514905 0.865841
v 0.706893 0.570551 0.580158
v 0.464402 0.145539 0.1875
v 0.366076 0.142852 0.06976
v 0.258306 0.309495 0.128082
v 0.4818 0.444847 0.135595
v 0.690239 0.685485 0.703565
v 0.28743 0.134749 0.712691
v 0.529263 0.871138 0.693452
v 0.284533 0.285055 0.865434
v 0.865444 0.714951 0.284507
v 0.866179 0.284571 0.282553
v 0.114967 0.556994 0.310985
v 0.284541 0.717571 0.133775
v 0.693287 0.552812 0.120088
v 0.503917 0.641078 0.546749
v 0.133228 0.715815 0.719025
v 0.13305 0.28407 0.719497
v 0.230461 0.137886 0.106234
v 0.282546 0.709801 0.869821
v 0.548749 0.354885 0.505498
v 0.873875 0.441907 0.500386
v 0.851798 0.57794 0.525106
v 0.339656 0.443754 0.723777
v 0.428314 0.436326 0.288489
v 0.729757 0.125655 0.551813
v 0.724702 0.717203 0.131091
v 0.293825 0.464655 0.426458
v 0.694045 0.880931 0.539182
v 0.348131 0.831441 0.501623
v 0.852687 0.507685 0.35187
v 0.536844 0.119369 0.691743
v 0.270949 0.56079 0.664694
v 0.725381 0.418124 0.855631
v 0.693824 0.288651 0.882413
v 0.519535 0.306844 0.879941
v 0.432167 0.662981 0.254323
v 0.566984 0.441619 0.692956
v 0.117992 0.279464 0.443065
v 0.550418 0.739028 0.877235
v 0.734497 0.569139 0.351019
v 0.881952 0.700803 0.736083
v 0.882341 0.706318 0.545653
v 0.875516 0.657689 0.875516
v 0.850615 0.509797 0.952904
v 0.346034 0.504832 0.856623
v 0.877396 0.258751 0.549385
v 0.119827 0.550897 0.524884
v 0.14319 0.492526 0.655692
v 0.519827 0.240706 0.639605
v 0.526434 0.538063 0.376227
v 0.387716 0.290155 0.140376
v 0.561646 0.546634 0.107478
v 0.685101 0.673489 0.893558
v 0.415393 0.723038 0.139034
v 0.623392 0.504587 0.458687
v 0.462266 0.870044 0.326135
v 0.416973 0.421533 0.436208
v 0.63475 0.251766 0.740576
v 0.642626 0.754966 0.518932
v 0.334705 0.135542 0.522715
v 0.408752 0.679718 0.397821
v 0.0556355 0.435034 0.0518311
v 0.752558 0.438743 0.113196
v 0.244929 0.318931 0.251613
v 0.21176 0.38551 0.719222
v 0.248232 0.886712 0.561629
v 0.608199 0.786019 0.291879
v 0.112891 0.755177 0.560024
v 0.119493 0.736976 0.429515
v 0.787219 0.385047 0.278776
v 0.874621 0.345895 0.708317
v 0.663413 0.571296 0.243832
v 0.279997 0.613872 0.786151
v 0.231119 0.121031 0.283465
v 0.278011 0.876273 0.255723
v 0.740884 0.876085 0.773759
v 0.430849 0.112937 0.317744
v 0.800815 0.887502 0.471164
v 0.882761 0.882761 0.571053
v 0.208629 0.398658 0.0963807
v 0.103881 0.38282 0.104219
v 0.557634 0.760252 0.112301
v 0.140203 0.43618 0.305366
v 0.775079 0.123252 0.741079
v 0.556784 0.887909 0.237942
v 0.741573 0.267774 0.642662
v 0.570812 0.750509 0.751245
v 0.470927 0.112781 0.79963
v 0.542235 0.178714 0.886481
v 0.281172 0.684896 0.434497
v 0.332558 0.265357 0.440634
v 0.384241 0.782759 0.27261
v 0.235399 0.555586 0.888205
v 0.501166 0.352231 0.750232
v 0.888311 0.444845 0.234483
v 0.228498 0.111103 0.446993
f 1 2 3
f 1 165 2
f 1 3 165
f 2 4 3
f 2 38 4
f 2 37 38
f 2 292 37
f 2 165 290
f 2 290 292
f 3 4 9
f 3 9 10
f 3 10 192
f 165 3 166
f 3 192 166
f 4 38 9
f 5 6 7
f 189 6 5
f 189 5 7
f 7 6 8
f 6 11 8
f 6 12 11
f 6 204 12
f 189 190 6
f 190 204 6
f 7 8 39
f 7 39 40
f 376 7 40
f 189 7 374
f 374 7 376
f 8 11 39
f 10 9 13
f 9 14 13
f 9 43 14
f 38 41 9
f 9 41 43
f 10 13 192
f 12 15 11
f 11 15 16
f 11 16 44
f 39 11 42
f 11 44 42
f 204 15 12
f 13 14 17
f 13 17 18
f 13 18 220
f 192 13 206
f 13 220 206
f 14 43 17
f 15 19 16
f 15 20 19
f 15 232 20
f 204 218 15
f 218 232 15
f 16 19 44
f 18 17 21
f 17 22 21
f 17 47 22
f 43 45 17
f 17 45 47
f 18 21 220
f 20 23 19
f 19 23 24
f 19 24 48
f 44 19 46
f 19 48 46
f 232 23 20
f 21 22 25
f 21 25 26
f 21 26 248
f 220 21 234
f 21 248 234
f 22 47 25
f 23 27 24
f 23 28 27
f 23 260 28
f 232 246 23
f 246 260 23
f 24 27 48
f 26 25 29
f 25 30 29
f 25 51 30
f 47 49 25
f 25 49 51
f 26 29 248
f 28 31 27
f 27 31 32
f 27 32 52
f 48 27 50
f 27 52 50
f 260 31 28
f 29 30 33
f 29 33 34
f 29 34 276
f 248 29 262
f 29 276 262
f 30 51 33
f 31 35 32
f 31 36 35
f 31 288 36
f 260 274 31
f 274 288 31
f 32 35 52
f 34 33 276
f 51 53 33
f 33 53 291
f 33 289 276
f 33 291 289
f 288 35 36
f 52 35 54
f 375 54 35
f 288 373 35
f 373 375 35
f 37 55 38
f 37 292 55
f 38 59 41
f 55 56 38
f 38 56 59
f 40 39 57
f 39 42 60
f 57 39 58
f 39 60 58
f 376 40 57
f 41 59 43
f 42 44 60
f 43 63 45
f 59 61 43
f 43 61 63
f 44 46 64
f 60 44 62
f 44 64 62
f 45 63 47
f 46 48 64
f 47 67 49
f 63 65 47
f 47 65 67
f 48 50 68
f 64 48 66
f 48 68 66
f 49 67 51
f 50 52 68
f 51 71 53
f 67 69 51
f 51 69 71
f 52 54 72
f 68 52 70
f 52 72 70
f 53 71 291
f 375 72 54
f 55 74 56
f 55 73 74
f 55 296 73
f 55 292 294
f 55 294 296
f 56 74 59
f 57 58 75
f 57 75 76
f 380 57 76
f 376 57 378
f 378 57 380
f 58 60 75
f 59 79 61
f 74 77 59
f 59 77 79
f 60 62 80
f 75 60 78
f 60 80 78
f 61 79 63
f 62 64 80
f 63 83 65
f 79 81 63
f 63 81 83
f 64 66 84
f 80 64 82
f 64 84 82
f 65 83 67
f 66 68 84
f 67 87 69
f 83 85 67
f 67 85 87
f 68 70 88
f 84 68 86
f 68 88 86
f 69 87 71
f 70 72 88
f 87 89 71
f 71 89 295
f 71 293 291
f 71 295 293
f 88 72 90
f 379 90 72
f 375 377 72
f 377 379 72
f 73 91 74
f 73 296 91
f 74 95 77
f 91 92 74
f 74 92 95
f 76 75 93
f 75 78 96
f 93 75 94
f 75 96 94
f 380 76 93
f 77 95 79
f 78 80 96
f 79 99 81
f 95 97 79
f 79 97 99
f 80 82 100
f 96 80 98
f 80 100 98
f 81 99 83
f 82 84 100
f 83 103 85
f 99 101 83
f 83 101 103
f 84 86 104
f 100 84 102
f 84 104 102
f 85 103 87
f 86 88 104
f 87 107 89
f 103 105 87
f 87 105 107
f 88 90 108
f 104 88 106
f 88 108 106
f 89 107 295
f 379 108 90
f 91 110 92
f 91 109 110
f 91 300 109
f 91 296 298
f 91 298 300
f 92 110 95
f 93 94 111
f 93 111 112
f 384 93 112
f 380 93 382
f 382 93 384
f 94 96 111
f 95 115 97
f 110 113 95
f 95 113 115
f 96 98 116
f 111 96 114
f 96 116 114
f 97 115 99
f 98 100 116
f 99 119 101
f 115 117 99
f 99 117 119
f 100 102 120
f 116 100 118
f 100 120 118
f 101 119 103
f 102 104 120
f 103 123 105
f 119 121 103
f 103 121 123
f 104 106 124
f 120 104 122
f 104 124 122
f 105 123 107
f 106 108 124
f 123 125 107
f 107 125 299
f 107 297 295
f 107 299 297
f 124 108 126
f 383 126 108
f 379 381 108
f 381 383 108
f 109 127 110
f 109 300 127
f 110 131 113
f 127 128 110
f 110 128 131
f 112 111 129
f 111 114 132
f 129 111 130
f 111 132 130
f 384 112 129
f 113 131 115
f 114 116 132
f 115 135 117
f 131 133 115
f 115 133 135
f 116 118 136
f 132 116 134
f 116 136 134
f 117 135 119
f 118 120 136
f 119 139 121
f 135 137 119
f 119 137 139
f 120 122 140
f 136 120 138
f 120 140 138
f 121 139 123
f 122 124 140
f 123 143 125
f 139 141 123
f 123 141 143
f 124 126 144
f 140 124 142
f 124 144 142
f 125 143 299
f 383 144 126
f 127 146 128
f 127 145 146
f 127 163 145
f 127 302 163
f 127 300 302
f 128 146 131
f 129 130 147
f 129 147 148
f 187 129 148
f 386 129 187
f 384 129 386
f 130 132 147
f 131 151 133
f 146 149 131
f 131 149 151
f 132 134 152
f 147 132 150
f 132 152 150
f 133 151 135
f 134 136 152
f 135 155 137
f 151 153 135
f 135 153 155
f 136 138 156
f 152 136 154
f 136 156 154
f 137 155 139
f 138 140 156
f 139 159 141
f 155 157 139
f 139 157 159
f 140 142 160
f 156 140 158
f 140 160 158
f 141 159 143
f 142 144 160
f 159 161 143
f 143 161 275
f 143 275 301
f 143 301 299
f 160 144 162
f 287 162 144
f 385 287 144
f 383 385 144
f 145 163 146
f 146 191 149
f 163 164 146
f 146 164 191
f 187 148 147
f 147 150 203
f 187 147 188
f 188 147 203
f 149 191 151
f 203 150 152
f 151 219 153
f 191 205 151
f 151 205 219
f 152 154 231
f 203 152 217
f 217 152 231
f 153 219 155
f 231 154 156
f 155 247 157
f 219 233 155
f 155 233 247
f 156 158 259
f 231 156 245
f 245 156 259
f 157 247 159
f 259 158 160
f 159 275 161
f 247 261 159
f 159 261 275
f 160 162 287
f 259 160 273
f 273 160 287
f 163 168 164
f 163 167 168
f 163 316 167
f 302 316 163
f 164 168 191
f 165 166 169
f 165 169 170
f 165 170 304
f 165 304 290
f 166 192 169
f 167 171 168
f 316 171 167
f 171 172 168
f 168 172 195
f 168 193 191
f 168 195 193
f 170 169 173
f 173 169 174
f 169 196 174
f 169 192 194
f 169 194 196
f 170 173 304
f 171 176 172
f 171 175 176
f 171 344 175
f 316 330 171
f 330 344 171
f 172 176 195
f 173 174 177
f 173 177 178
f 173 178 332
f 304 173 318
f 173 332 318
f 174 196 177
f 175 179 176
f 344 179 175
f 179 180 176
f 176 180 199
f 176 197 195
f 176 199 197
f 178 177 181
f 181 177 182
f 177 200 182
f 177 196 198
f 177 198 200
f 178 181 332
f 179 184 180
f 179 183 184
f 179 372 183
f 344 358 179
f 358 372 179
f 180 184 199
f 181 182 185
f 181 185 186
f 181 186 360
f 332 181 346
f 181 360 346
f 182 200 185
f 183 187 184
f 372 187 183
f 187 188 184
f 184 188 203
f 184 201 199
f 184 203 201
f 186 185 189
f 189 185 190
f 185 204 190
f 185 200 202
f 185 202 204
f 186 189 360
f 372 386 187
f 360 189 374
f 191 193 207
f 191 207 205
f 192 208 194
f 192 206 208
f 193 195 207
f 194 208 196
f 195 197 211
f 195 209 207
f 195 211 209
f 196 212 198
f 196 208 210
f 196 210 212
f 197 199 211
f 198 212 200
f 199 201 215
f 199 213 211
f 199 215 213
f 200 216 202
f 200 212 214
f 200 214 216
f 201 203 215
f 202 216 204
f 203 217 215
f 204 216 218
f 205 207 219
f 206 220 208
f 207 209 223
f 207 221 219
f 207 223 221
f 208 224 210
f 208 220 222
f 208 222 224
f 209 211 223
f 210 224 212
f 211 213 227
f 211 225 223
f 211 227 225
f 212 228 214
f 212 224 226
f 212 226 228
f 213 215 227
f 214 228 216
f 215 217 231
f 215 229 227
f 215 231 229
f 216 232 218
f 216 228 230
f 216 230 232
f 219 221 235
f 219 235 233
f 220 236 222
f 220 234 236
f 221 223 235
f 222 236 224
f 223 225 239
f 223 237 235
f 223 239 237
f 224 240 226
f 224 236 238
f 224 238 240
f 225 227 239
f 226 240 228
f 227 229 243
f 227 241 239
f 227 243 241
f 228 244 230
f 228 240 242
f 228 242 244
f 229 231 243
f 230 244 232
f 231 245 243
f 232 244 246
f 233 235 247
f 234 248 236
f 235 237 251
f 235 249 247
f 235 251 249
f 236 252 238
f 236 248 250
f 236 250 252
f 237 239 251
f 238 252 240
f 239 241 255
f 239 253 251
f 239 255 253
f 240 256 242
f 240 252 254
f 240 254 256
f 241 243 255
f 242 256 244
f 243 245 259
f 243 257 255
f 243 259 257
f 244 260 246
f 244 256 258
f 244 258 260
f 247 249 263
f 247 263 261
f 248 264 250
f 248 262 264
f 249 251 263
f 250 264 252
f 251 253 267
f 251 265 263
f 251 267 265
f 252 268 254
f 252 264 266
f 252 266 268
f 253 255 267
f 254 268 256
f 255 257 271
f 255 269 267
f 255 271 269
f 256 272 258
f 256 268 270
f 256 270 272
f 257 259 271
f 258 272 260
f 259 273 271
f 260 272 274
f 261 263 275
f 262 276 264
f 263 265 279
f 263 277 275
f 263 279 277
f 264 280 266
f 264 276 278
f 264 278 280
f 265 267 279
f 266 280 268
f 267 269 283
f 267 281 279
f 267 283 281
f 268 284 270
f 268 280 282
f 268 282 284
f 269 271 283
f 270 284 272
f 271 273 287
f 271 285 283
f 271 287 285
f 272 288 274
f 272 284 286
f 272 286 288
f 275 277 315
f 301 275 315
f 276 303 278
f 276 289 303
f 315 277 279
f 278 303 280
f 279 281 343
f 315 279 329
f 329 279 343
f 280 331 282
f 303 317 280
f 280 317 331
f 343 281 283
f 282 331 284
f 283 285 371
f 343 283 357
f 357 283 371
f 284 359 286
f 331 345 284
f 284 345 359
f 371 285 287
f 286 359 288
f 371 287 385
f 359 373 288
f 289 291 303
f 290 304 292
f 291 293 307
f 291 305 303
f 291 307 305
f 292 308 294
f 292 304 306
f 292 306 308
f 293 295 307
f 294 308 296
f 295 297 311
f 295 309 307
f 295 311 309
f 296 312 298
f 296 308 310
f 296 310 312
f 297 299 311
f 298 312 300
f 299 301 315
f 299 313 311
f 299 315 313
f 300 316 302
f 300 312 314
f 300 314 316
f 303 305 319
f 303 319 317
f 304 320 306
f 304 318 320
f 305 307 319
f 306 320 308
f 307 309 323
f 307 321 319
f 307 323 321
f 308 324 310
f 308 320 322
f 308 322 324
f 309 311 323
f 310 324 312
f 311 313 327
f 311 325 323
f 311 327 325
f 312 328 314
f 312 324 326
f 312 326 328
f 313 315 327
f 314 328 316
f 315 329 327
f 316 328 330
f 317 319 331
f 318 332 320
f 319 321 335
f 319 333 331
f 319 335 333
f 320 336 322
f 320 332 334
f 320 334 336
f 321 323 335
f 322 336 324
f 323 325 339
f 323 337 335
f 323 339 337
f 324 340 326
f 324 336 338
f 324 338 340
f 325 327 339
f 326 340 328
f 327 329 343
f 327 341 339
f 327 343 341
f 328 344 330
f 328 340 342
f 328 342 344
f 331 333 347
f 331 347 345
f 332 348 334
f 332 346 348
f 333 335 347
f 334 348 336
f 335 337 351
f 335 349 347
f 335 351 349
f 336 352 338
f 336 348 350
f 336 350 352
f 337 339 351
f 338 352 340
f 339 341 355
f 339 353 351
f 339 355 353
f 340 356 342
f 340 352 354
f 340 354 356
f 341 343 355
f 342 356 344
f 343 357 355
f 344 356 358
f 345 347 359
f 346 360 348
f 347 349 363
f 347 361 359
f 347 363 361
f 348 364 350
f 348 360 362
f 348 362 364
f 349 351 363
f 350 364 352
f 351 353 367
f 351 365 363
f 351 367 365
f 352 368 354
f 352 364 366
f 352 366 368
f 353 355 367
f 354 368 356
f 355 357 371
f 355 369 367
f 355 371 369
f 356 372 358
f 356 368 370
f 356 370 372
f 359 361 375
f 359 375 373
f 360 376 362
f 360 374 376
f 361 363 375
f 362 376 364
f 363 365 379
f 363 377 375
f 363 379 377
f 364 380 366
f 364 376 378
f 364 378 380
f 365 367 379
f 366 380 368
f 367 369 383
f 367 381 379
f 367 383 381
f 368 384 370
f 368 380 382
f 368 382 384
f 369 371 383
f 370 384 372
f 371 385 383
f 372 384 386
