v 29.227 18.7072 44.5395
v 46.16 16.6259 49.9615
v 36.5189 26.3574 43.7216
v 46.7509 -33.6833 10.309
v 55.2598 -29.1207 14.605
v 55.1358 -33.819 21.7115
v 31.1172 26.4994 112.434
v 23.362 20.3964 106.939
v 29.5429 11.7657 111.693
v 13.9773 -17.5217 65.4339
v 12.4604 -27.6314 52.3115
v 27.1611 -20.2105 64.5898
v 21.0509 14.744 31.4851
v 5.59186 20.2002 48.5694
v 56.6766 18.9335 42.754
v 63.9359 15.7362 34.6951
v -19.512 -24.398 57.5565
v -22.7219 -26.3611 64.2214
v -22.557 -7.86388 60.1161
v 63.0925 13.9103 22.043
v 74.1037 -2.43334 25.0263
v 65.3927 1.68511 12.9791
v 8.38038 43.9843 107.664
v 18.3093 45.1973 97.1142
v 6.27608 42.7545 90.716
v 56.4394 12.5683 14.206
v 49.9605 21.4943 29.3667
v 7.37312 -20.2731 19.886
v 10.0612 -10.7915 10.2174
v 7.33785 -24.8425 15.4258
v 38.3743 19.9742 16.789
v 28.565 26.4273 32.5673
v -1.81486 -7.48487 11.8594
v -0.456871 -12.8818 5.25388
v 10.3931 6.12479 14.8424
v 31.863 17.0913 15.0763
v 13.4674 17.5026 8.85838
v 4.80457 10.3277 78.931
v 9.65761 7.29352 79.9358
v 11.3227 10.6954 68.51
v 82.9968 -9.75807 31.6852
v 82.0118 -22.4488 25.6991
v 84.2329 -10.8092 23.2742
v 16.2198 41.0042 112.514
v 3.33072 19.6172 82.5374
v 4.80431 14.3531 89.1712
v -23.8899 -7.02868 67.7221
v -17.0163 6.63105 62.738
v 10.3975 -3.88809 89.7095
v 22.6169 2.45895 96.7873
v 7.05195 -3.02998 92.853
v 19.8744 -37.0502 7.22532
v 31.4526 -34.7439 15.3895
v 17.848 -29.9476 17.2534
v 28.9024 20.6026 94.5502
v 36.3632 19.8498 93.3807
v 59.223 11.8868 63.9912
v 68.2421 9.49475 51.547
v 57.8143 13.2049 53.8334
v 77.1601 -20.2484 40.0356
v 64.2776 -29.0771 17.0897
v 75.2355 -20.4616 30.3582
v 38.1957 23.4682 110.779
v 35.3632 30.6435 105.769
v 55.1522 -35.4013 50.3492
v 71.8478 -25.795 51.5126
v 62.428 -28.3823 60.189
v 76.1413 -2.21627 55.116
v 77.4438 -9.29252 31.7864
v -20.5117 -9.21455 46.4417
v -15.6197 -19.235 41.2536
v -15.2951 -17.3399 55.1727
v 48.752 -10.7503 75.2489
v 63.7695 -6.07431 69.4726
v 50.7957 1.5085 72.2327
v -16.0818 1.18279 36.2723
v -7.13561 -15.087 23.8353
v -10.108 -20.9836 31.132
v 13.1848 0.510763 81.5657
v 16.8818 -3.67468 71.5072
v -7.09631 11.3793 82.828
v 4.5982 36.3585 84.129
v -17.3628 -2.17747 54.5558
v -5.46256 11.1365 58.6369
v -8.19249 14.4554 44.9015
v -2.56485 12.4585 77.9485
v 1.88037 37.0664 110.211
v -2.58205 3.29196 90.2996
v 9.6797 4.99755 100.125
v -4.20537 -8.04033 93.7404
v 6.38619 8.42578 90.6436
v -21.5937 -5.90878 86.3794
v -14.1174 -16.907 88.406
v -20.0183 -24.4914 77.2628
v -19.3417 -1.29074 78.1619
v 74.1775 6.97171 41.443
v 3.63042 -19.4018 88.5387
v -6.7721 -27.3672 83.0704
v -7.55354 1.50641 24.9849
v 16.2963 -30.7114 28.9017
v 8.90513 5.3768 5.27491
v 54.832 12.9908 5.35187
v 54.9234 -0.264993 5.37624
v 22.3958 18.5504 5.31187
v 47.8806 -23.292 72.038
v 42.5512 -31.0914 64.3516
v -6.45279 -22.7646 5.37584
v -4.46217 33.0562 103.48
v 32.6508 16.5741 59.5619
v 6.23926 4.2788 21.5696
v -4.71178 -24.599 55.313
v -1.69333 -30.4149 44.6539
v 74.378 -16.983 5.28087
v 67.266 -25.7619 5.33583
v -5.43409 1.44832 7.63063
v 67.7567 -19.7853 64.5325
v 42.7133 -41.4276 30.4594
v 62.8857 -34.1177 37.3827
v 49.2078 -39.9662 41.9724
v 27.7241 -39.7768 41.869
v 31.1809 -41.3066 27.1143
v 39.4984 -40.3041 46.2183
v 29.2369 1.37228 68.7024
v -9.31655 8.58915 87.9046
v 1.37167 -29.6384 8.03567
v -4.24593 23.641 94.4699
v -14.4832 -32.9049 70.881
v 19.4853 38.6301 93.6212
v 17.3738 15.5957 62.4346
v 43.6051 11.6081 63.7272
v 21.2407 36.329 104.227
v 5.31533 -16.9999 80.2601
v -5.8182 -33.935 62.8038
v 1.50083 -25.9176 65.0045
v 70.4716 -5.59137 5.29483
v 23.5493 -31.6159 47.8953
v -1.42583 -28.6978 35.9278
v 41.2332 26.832 32.6388
v 79.9774 -3.08799 21.7587
v 30.0411 30.6012 103.613
v 46.4701 -32.1801 5.31205
v 2.11345 16.7165 32.4448
v 12.6977 -28.1816 5.31038
v 6.41978 -6.82797 13.8519
v 3.26982 34.3156 94.0829
v 10.6081 28.9536 101.517
v -2.1548 20.6236 100.336
v 35.53 14.8194 95.2454
v 43.8314 -10.6626 37.36
v 33.8551 -11.7345 19.22
v 41.8522 -16.0011 56.8931
v 13.8125 -5.45632 43.6075
v 59.5902 -9.78532 34.4656
v 42.2853 7.0798 29.3758
f 1 2 3
f 109 2 1
f 3 32 1
f 1 13 14
f 1 32 13
f 14 109 1
f 15 3 2
f 59 15 2
f 109 59 2
f 15 16 3
f 16 27 3
f 3 27 138
f 138 32 3
f 4 5 6
f 4 141 5
f 4 6 117
f 121 53 4
f 141 4 53
f 121 4 117
f 6 5 61
f 5 114 61
f 5 141 114
f 6 61 118
f 118 117 6
f 7 8 9
f 140 8 7
f 63 7 9
f 7 63 64
f 7 64 140
f 8 89 9
f 8 55 91
f 55 8 140
f 89 8 91
f 50 9 51
f 50 63 9
f 51 9 89
f 10 11 12
f 111 11 10
f 80 10 12
f 49 10 79
f 132 10 49
f 79 10 80
f 111 10 134
f 132 134 10
f 11 136 12
f 100 11 112
f 100 136 11
f 11 111 112
f 105 73 12
f 73 123 12
f 123 80 12
f 106 105 12
f 12 136 106
f 142 14 13
f 32 36 13
f 13 36 110
f 142 13 110
f 40 14 84
f 40 129 14
f 14 85 84
f 14 142 85
f 109 14 129
f 16 15 58
f 59 58 15
f 21 20 16
f 16 20 27
f 21 16 96
f 16 58 96
f 17 18 19
f 18 17 127
f 17 19 72
f 111 17 72
f 111 133 17
f 17 133 127
f 18 94 19
f 94 18 127
f 47 48 19
f 94 47 19
f 48 83 19
f 72 19 83
f 20 21 22
f 20 22 26
f 26 27 20
f 21 135 22
f 21 69 41
f 41 139 21
f 96 69 21
f 139 135 21
f 26 22 103
f 103 22 135
f 23 24 25
f 44 24 23
f 23 25 145
f 87 44 23
f 23 108 87
f 108 23 145
f 24 82 25
f 44 131 24
f 128 82 24
f 131 128 24
f 81 25 82
f 145 25 81
f 27 26 31
f 31 26 36
f 26 102 36
f 102 26 103
f 27 31 32
f 138 27 32
f 28 29 30
f 28 144 29
f 54 28 30
f 100 28 54
f 78 77 28
f 110 28 77
f 78 28 137
f 137 28 100
f 144 28 110
f 29 107 30
f 33 34 29
f 29 144 33
f 107 29 34
f 143 54 30
f 125 30 107
f 30 125 143
f 36 32 31
f 34 33 115
f 115 33 144
f 101 104 34
f 115 101 34
f 34 104 107
f 35 36 37
f 35 110 36
f 101 35 37
f 101 115 35
f 110 35 144
f 115 144 35
f 104 37 36
f 36 102 104
f 37 104 101
f 38 39 40
f 91 39 38
f 86 38 40
f 38 45 46
f 45 38 86
f 91 38 46
f 39 80 40
f 55 56 39
f 91 55 39
f 56 79 39
f 79 80 39
f 40 80 123
f 86 40 84
f 123 109 40
f 129 40 109
f 41 42 43
f 62 42 41
f 41 43 139
f 62 41 69
f 42 113 43
f 114 42 62
f 113 42 114
f 43 113 135
f 139 43 135
f 146 44 87
f 146 131 44
f 46 45 128
f 45 86 82
f 82 128 45
f 46 88 91
f 88 46 146
f 128 131 46
f 46 131 146
f 95 48 47
f 47 94 95
f 81 84 48
f 81 48 95
f 83 48 84
f 49 50 51
f 49 79 50
f 51 90 49
f 49 90 97
f 132 49 97
f 148 63 50
f 50 79 148
f 88 51 89
f 90 51 88
f 52 53 54
f 52 141 53
f 54 143 52
f 52 143 141
f 54 53 121
f 121 100 54
f 56 55 140
f 63 56 64
f 63 148 56
f 140 64 56
f 148 79 56
f 57 58 59
f 57 68 58
f 57 59 130
f 68 57 74
f 75 74 57
f 75 57 130
f 68 96 58
f 130 59 109
f 60 61 62
f 60 118 61
f 60 62 69
f 66 60 68
f 66 118 60
f 68 60 69
f 114 62 61
f 65 66 67
f 65 118 66
f 65 67 122
f 65 119 118
f 65 122 119
f 116 67 66
f 116 66 68
f 106 67 105
f 67 116 105
f 67 106 122
f 68 69 96
f 68 74 116
f 70 71 72
f 70 78 71
f 70 72 83
f 70 76 78
f 83 76 70
f 72 71 111
f 71 78 112
f 111 71 112
f 73 74 75
f 73 116 74
f 123 73 75
f 116 73 105
f 130 123 75
f 76 77 78
f 76 99 77
f 83 85 76
f 76 85 99
f 99 110 77
f 137 112 78
f 82 86 81
f 86 84 81
f 124 81 95
f 126 81 124
f 145 81 126
f 84 85 83
f 142 99 85
f 147 87 108
f 147 146 87
f 89 91 88
f 92 90 88
f 124 92 88
f 147 124 88
f 147 88 146
f 92 93 90
f 90 93 97
f 92 94 93
f 92 95 94
f 124 95 92
f 98 93 94
f 97 93 98
f 94 127 98
f 98 132 97
f 133 98 127
f 132 98 133
f 99 142 110
f 137 100 112
f 121 120 100
f 136 100 120
f 102 103 104
f 104 103 107
f 103 135 107
f 106 120 122
f 106 136 120
f 114 107 135
f 141 107 114
f 125 107 143
f 143 107 141
f 108 145 126
f 108 126 147
f 109 123 130
f 111 134 133
f 113 114 135
f 117 118 119
f 122 117 119
f 122 121 117
f 120 121 122
f 147 126 124
f 132 133 134
